<svg width="1381" height="484" viewBox="0 0 1381 484" fill="none" xmlns="http://www.w3.org/2000/svg">
<path d="M-75 329C-57.5 329 75.5 479.5 251.5 479.5C496 479.5 627.644 -68.7574 972 84.5C1245 206 1365 219 1415 134.5" stroke="#33425F" stroke-opacity="0.2"/>
<path d="M-75 199C-59.5 210.5 75.5 479.5 251.5 479.5C496 479.5 667.644 -8.75735 1012 144.5C1285 266 1328 246.5 1415 184.5" stroke="#33425F" stroke-opacity="0.2"/>
<path d="M-75 409C-57.5 409 75.5 483.5 251.5 483.5C496 483.5 630.499 -158.239 952 38.5C1186.5 182 1325 239 1415 174.5" stroke="#33425F" stroke-opacity="0.2"/>
</svg>

