<?xml version="1.0" standalone="no"?>
<!DOCTYPE svg PUBLIC "-//W3C//DTD SVG 20010904//EN"
 "http://www.w3.org/TR/2001/REC-SVG-20010904/DTD/svg10.dtd">
<svg version="1.0" xmlns="http://www.w3.org/2000/svg"
 width="1683.000000pt" height="1385.000000pt" viewBox="0 0 1683.000000 1385.000000"
 preserveAspectRatio="xMidYMid meet">

<g transform="translate(0.000000,1385.000000) scale(0.100000,-0.100000)"
fill="#000000" stroke="none">
<path d="M1630 13490 l0 -360 745 0 745 0 0 360 0 360 -745 0 -745 0 0 -360z"/>
<path d="M3680 12195 c0 -1570 1 -1655 18 -1655 34 1 100 39 163 95 334 301
754 494 1209 557 152 20 486 15 655 -10 517 -79 1043 -298 1398 -581 355 -283
618 -697 761 -1199 90 -315 136 -689 136 -1102 0 -1317 -460 -3073 -1400
-5345 -239 -578 -547 -1023 -823 -1191 -98 -61 -160 -79 -267 -78 -86 0 -104
4 -190 38 -439 173 -948 566 -1410 1090 -89 101 -125 134 -165 152 -27 13 -58
24 -67 24 -17 0 -18 -78 -18 -1490 l0 -1491 3123 4 c2245 3 3160 7 3257 15
407 35 599 58 900 108 2668 441 4680 2065 5482 4424 192 566 303 1119 360
1795 17 202 17 941 0 1150 -100 1239 -430 2273 -1029 3225 -404 641 -968 1246
-1596 1709 -1056 778 -2379 1252 -3842 1376 -381 32 -650 35 -3642 35 l-3013
0 0 -1655z"/>
<path d="M1625 12387 c-3 -6 -4 -170 -3 -362 l3 -350 748 -3 747 -2 0 365 0
365 -745 0 c-589 0 -747 -3 -750 -13z"/>
<path d="M1945 10378 c-278 -31 -666 -154 -915 -290 -296 -161 -554 -413 -713
-694 -145 -256 -236 -556 -284 -938 -24 -186 -23 -678 0 -916 93 -920 369
-1946 882 -3275 108 -280 258 -646 310 -759 209 -449 496 -788 715 -846 114
-30 220 -6 422 97 284 144 619 412 896 716 66 73 130 144 141 159 31 39 116
78 171 78 55 0 140 -39 171 -78 116 -149 416 -444 604 -593 194 -154 445 -302
615 -364 191 -68 343 -14 543 195 136 141 300 394 409 630 55 117 224 531 323
790 506 1317 777 2326 872 3245 24 240 24 724 0 925 -107 866 -484 1414 -1179
1714 -723 313 -1419 284 -1968 -82 -58 -38 -136 -96 -174 -128 -123 -105 -130
-109 -216 -109 -86 0 -93 4 -216 109 -257 219 -589 366 -932 411 -118 16 -352
17 -477 3z"/>
</g>
</svg>
